<?xml version="1.0" encoding="iso-8859-1"?>
<!-- Uploaded to: SVG Repo, www.svgrepo.com, Generator: SVG Repo Mixer Tools -->
<svg fill="#000000" height="800px" width="800px" version="1.1" id="Layer_1" xmlns="http://www.w3.org/2000/svg" xmlns:xlink="http://www.w3.org/1999/xlink" 
	 viewBox="0 0 512 512" xml:space="preserve">
<g>
	<g>
		<path d="M490.667,149.333H448c-11.782,0-21.333,9.551-21.333,21.333c0,11.782,9.551,21.333,21.333,21.333v21.333
			c0,28.912-19.106,53.295-45.397,61.252c-7.573-32.814-30.289-59.835-60.391-73.315C367.886,177.859,384,144.143,384,106.667
			V51.989C384,23.269,360.731,0,332.011,0H179.989C151.269,0,128,23.269,128,51.989v54.677c0,37.476,16.114,71.193,41.787,94.603
			c-30.101,13.48-52.817,40.501-60.391,73.315C83.106,266.628,64,242.246,64,213.333V192c11.782,0,21.333-9.551,21.333-21.333
			c0-11.782-9.551-21.333-21.333-21.333H21.333C9.551,149.333,0,158.885,0,170.667C0,182.449,9.551,192,21.333,192v21.333
			C21.333,272.283,69.05,320,128,320h53.615L78.661,384.346C46.443,387.682,21.333,414.898,21.333,448c0,35.355,28.645,64,64,64
			s64-28.645,64-64c0-17.847-7.306-33.977-19.082-45.583l104.416-65.26v50.497C209.808,396.438,192,420.128,192,448
			c0,35.355,28.645,64,64,64s64-28.645,64-64c0-27.872-17.808-51.562-42.667-60.346v-50.497l104.416,65.26
			c-11.777,11.606-19.082,27.736-19.082,45.583c0,35.355,28.645,64,64,64s64-28.645,64-64c0-33.102-25.11-60.318-57.327-63.654
			L330.385,320H384c58.95,0,106.667-47.717,106.667-106.667V192c11.782,0,21.333-9.551,21.333-21.333
			C512,158.885,502.449,149.333,490.667,149.333z M170.667,51.989c0-5.157,4.166-9.323,9.323-9.323h152.021
			c5.157,0,9.323,4.166,9.323,9.323v54.677C341.333,153.786,303.119,192,256,192s-85.333-38.214-85.333-85.333V51.989z
			 M85.333,469.333C73.542,469.333,64,459.791,64,448s9.542-21.333,21.333-21.333s21.333,9.542,21.333,21.333
			S97.125,469.333,85.333,469.333z M256,469.333c-11.791,0-21.333-9.542-21.333-21.333s9.542-21.333,21.333-21.333
			s21.333,9.542,21.333,21.333S267.791,469.333,256,469.333z M426.667,469.333c-11.791,0-21.333-9.542-21.333-21.333
			s9.542-21.333,21.333-21.333S448,436.209,448,448S438.458,469.333,426.667,469.333z M152.976,277.333
			c8.787-24.856,32.494-42.667,60.358-42.667h85.333c27.863,0,51.571,17.81,60.358,42.667H152.976z"/>
	</g>
</g>
</svg>